<svg version="1.2" xmlns="http://www.w3.org/2000/svg" viewBox="0 0 271 78" width="271" height="78">
	<title>270x200-svg</title>
	<defs>
		<clipPath clipPathUnits="userSpaceOnUse" id="cp1">
			<path d="m0.5-62h270v200h-270z"/>
		</clipPath>
	</defs>
	<style>
		.s0 { fill: #16303a } 
		.s1 { fill: #ff3c2e } 
		.s2 { fill: #6a7a7e } 
	</style>
	<g id="Clip-Path" clip-path="url(#cp1)">
		<g id="Layer">
			<path id="Layer" fill-rule="evenodd" class="s0" d="m31.1 33.8h5.4v33.5h-5.4zm68.4 0h5.4v12.1l0.5-0.3c0.6-0.6 1.9-1.1 3-1.3 1.1-0.2 3.1-0.1 4.3 0.3 1.3 0.4 2.8 1.4 3.6 2.5 0.9 1.1 1 1.4 1.4 2.6 0.5 1.6 0.6 3.2 0.6 10.5v7.2h-5.4v-7.6c0-7.8-0.1-8.5-0.6-9.4-0.7-1-2.4-1.4-4-1-0.9 0.3-2.1 1.1-2.5 1.9-0.9 1.2-0.9 1.9-0.9 9.3v6.8h-5.4zm-83.1 1c1.9 0.1 2.5 0.2 3.6 0.5 1.8 0.5 3.2 1.1 4.6 2 1.3 0.9 3.3 2.6 3.3 2.9 0 0.1-2.6 2.7-3.3 3.3-0.1 0.1-0.5-0.1-1.4-0.9-3.5-3-7.9-3.7-11.9-1.7-1.1 0.6-1.6 0.9-2.4 1.7-1.3 1.3-1.5 1.6-2.1 3-0.8 1.5-1 2.6-1.2 4.4-0.2 3.8 0.8 6.8 3.2 9.1 1 1 1.5 1.4 2.5 1.9 1.8 0.9 2.8 1.1 4.9 1 3-0.1 5-0.9 7-2.8 0.7-0.6 1.3-1.1 1.3-1.1 0.2 0.1 3.4 3.5 3.4 3.6 0 0.2-1.8 1.9-2.7 2.5-3 2.2-7.2 3.3-10.7 2.9-4.8-0.5-8.6-2.7-11.1-6.4-3.4-5.1-3.9-12.1-1.2-17.5 2.3-4.5 6.6-7.6 11.5-8.3 0.2-0.1 1.4-0.1 2.7-0.1zm49.5 1.7h5.4v8h4.1v5.3h-4.1v17.5h-5.4v-17.5h-3.9v-5.3h3.9zm25.1 8c1.9 0.5 3.6 1.5 5.3 3l0.5 0.4-1.5 1.4c-0.8 0.8-1.6 1.6-1.8 1.8l-0.4 0.3-0.9-0.6c-1.6-1.3-3.5-1.8-5.4-1.5-2.7 0.4-4.6 2.2-5.2 4.7-1 4.3 1.9 8.1 6.3 8.1 1.7 0 2.8-0.4 4.3-1.6 1-0.8 0.8-0.9 3.1 1.4l1.5 1.4-0.8 0.7c-1.6 1.4-2.8 2.2-4.8 2.7-1.4 0.5-4.1 0.6-5.7 0.3-4.4-0.9-7.7-4-8.8-8.4-0.4-1.3-0.4-4.5-0.1-5.9 0.4-1.3 1.2-3.2 2-4.2 1.6-2.1 4.3-3.7 7.2-4.2 1.1-0.2 4-0.1 5.2 0.2zm-50.4 0.1h5.2l0.1 7.1c0 4.9 0.1 7.2 0.2 7.6 0.3 1.1 1.1 2.1 1.7 2.4 2.3 1.1 5.8-0.1 6.9-2.3 0.6-1.2 0.6-1.9 0.6-8.5v-6.3h5.3v22.7h-5.3v-0.9c0-0.5 0-0.8-0.1-0.8 0 0-0.3 0.2-0.7 0.4-1.1 0.7-2.4 1-4.3 1.1-2.1 0.1-3.2-0.1-4.7-0.8-2.3-1.1-3.6-2.8-4.5-5.5-0.3-1-0.3-1.4-0.4-8.6z"/>
			<path id="Layer" class="s1" d="m84.1 57c-0.7-2.1 0.4-4.3 2.6-5 0.5-0.2 2-0.1 2.6 0.2 1.4 0.7 2.2 1.9 2.2 3.5 0 2.2-1.6 3.8-3.9 3.8-1.6 0-3-1-3.5-2.5z"/>
			<path id="Layer" class="s1" d="m176.6 16.4l1.2-2.8 1.2-2.8h1.3 1.2l1.2 2.8 1.2 2.8 3.3 0.2c4 0.4 4.4 0.4 4.5 1 0.1 0.2 0.1 0.5 0 0.7-0.1 0.2-3.8 3.6-5.4 4.9-0.1 0 0.3 1.6 0.7 3.6 0.5 1.9 0.8 3.6 0.8 3.7 0 0.3-0.5 0.8-0.9 0.8-0.2 0-1.8-0.8-3.5-1.9l-3.1-1.9-3.1 1.9c-1.8 1.1-3.3 1.9-3.5 1.9-0.5 0-0.9-0.4-0.9-0.9 0-0.2 0.4-1.9 0.8-3.8 0.5-1.8 0.8-3.4 0.8-3.4-0.3-0.2-5.4-4.7-5.5-4.9-0.2-0.4-0.2-0.6 0.1-1 0.2-0.3 0.5-0.3 3.9-0.6z"/>
			<path id="Layer" class="s1" d="m150.4 16.4l1.2-2.8 1.2-2.8 0.6-1.5c0.1-0.2 0.3-0.3 0.6-0.3h0.1c0.2 0 0.4 0.1 0.5 0.3l0.2 0.4 0.5 1 1.2 2.9 1.2 2.8 3.3 0.2c3.9 0.4 4.3 0.4 4.5 1 0 0.2 0 0.5-0.1 0.7-0.1 0.2-3.8 3.6-5.4 4.9 0 0 0.3 1.6 0.8 3.6 0.4 1.9 0.8 3.6 0.8 3.7 0 0.3-0.6 0.8-0.9 0.8-0.2 0-1.8-0.8-3.5-1.9l-3.2-1.9-3.1 1.9c-1.7 1.1-3.3 1.9-3.5 1.9-0.4 0-0.8-0.4-0.8-0.9 0-0.2 0.3-1.9 0.8-3.8 0.4-1.8 0.8-3.4 0.7-3.4-0.3-0.2-5.4-4.7-5.5-4.9-0.2-0.4-0.1-0.6 0.2-1 0.2-0.3 0.5-0.3 3.9-0.6z"/>
			<path id="Layer" class="s1" d="m176.6 16.4l1.2-2.8 1.2-2.8 0.7-1.5c0.1-0.2 0.3-0.3 0.5-0.3h0.2c0.2 0 0.4 0.1 0.5 0.3l0.2 0.4 0.4 1 1.2 2.9 1.2 2.8 3.3 0.2c4 0.4 4.4 0.4 4.5 1 0.1 0.2 0.1 0.5 0 0.7-0.1 0.2-3.8 3.6-5.4 4.9-0.1 0 0.3 1.6 0.7 3.6 0.5 1.9 0.8 3.6 0.8 3.7 0 0.3-0.5 0.8-0.9 0.8-0.2 0-1.7-0.8-3.5-1.9l-3.1-1.9-3.1 1.9c-1.8 1.1-3.3 1.9-3.5 1.9-0.5 0-0.9-0.4-0.9-0.9 0-0.2 0.4-1.9 0.8-3.8 0.5-1.8 0.8-3.4 0.8-3.4-0.3-0.2-5.4-4.7-5.5-4.9-0.2-0.4-0.2-0.6 0.1-1 0.2-0.3 0.5-0.3 3.9-0.6z"/>
			<path id="Layer" class="s1" d="m202.9 16.4l1.2-2.8 1.2-2.8 0.6-1.5c0.1-0.2 0.3-0.3 0.6-0.3h0.1c0.2 0 0.4 0.1 0.5 0.3l0.2 0.4 0.5 1 1.2 2.9 1.2 2.8 3.3 0.2c3.9 0.4 4.3 0.4 4.5 1 0 0.2 0 0.5-0.1 0.7-0.1 0.2-3.8 3.6-5.4 4.9 0 0 0.3 1.6 0.8 3.6 0.4 1.9 0.8 3.6 0.8 3.7 0 0.3-0.6 0.8-0.9 0.8-0.2 0-1.8-0.8-3.5-1.9l-3.2-1.9-3.1 1.9c-1.7 1.1-3.3 1.9-3.5 1.9-0.4 0-0.8-0.4-0.8-0.9 0-0.2 0.3-1.9 0.8-3.8 0.4-1.8 0.8-3.4 0.7-3.4-0.3-0.2-5.4-4.7-5.5-4.9-0.2-0.4-0.1-0.6 0.2-1 0.2-0.3 0.5-0.3 3.9-0.6z"/>
			<path id="Layer" class="s1" d="m229.1 16.4l1.2-2.8 1.2-2.8 0.7-1.5c0.1-0.2 0.3-0.3 0.5-0.3h0.1c0.3 0 0.5 0.1 0.6 0.3l0.2 0.4 0.4 1 1.2 2.9 1.2 2.8 3.3 0.2c4 0.4 4.4 0.4 4.5 1 0.1 0.2 0.1 0.5 0 0.7-0.1 0.2-3.8 3.6-5.4 4.9-0.1 0 0.3 1.6 0.7 3.6 0.5 1.9 0.8 3.6 0.8 3.7 0 0.3-0.5 0.8-0.9 0.8-0.2 0-1.7-0.8-3.5-1.9l-3.1-1.9-3.1 1.9c-1.8 1.1-3.3 1.9-3.5 1.9-0.5 0-0.9-0.4-0.9-0.9 0-0.2 0.4-1.9 0.8-3.8 0.5-1.8 0.8-3.4 0.8-3.4-0.3-0.2-5.4-4.7-5.5-4.9-0.2-0.4-0.2-0.6 0.1-1 0.2-0.3 0.5-0.3 3.9-0.6z"/>
			<path id="Layer" class="s1" d="m255.4 16.4l1.2-2.8 1.2-2.8 0.6-1.5c0.1-0.2 0.3-0.3 0.6-0.3h0.1c0.2 0 0.4 0.1 0.5 0.3l0.2 0.4 0.5 1 1.2 2.9 1.2 2.8 3.3 0.2c3.9 0.4 4.3 0.4 4.5 1 0 0.2 0 0.5-0.1 0.7-0.1 0.2-3.8 3.6-5.4 4.9 0 0 0.3 1.6 0.8 3.6 0.4 1.9 0.8 3.6 0.8 3.7 0 0.3-0.6 0.8-1 0.8-0.1 0-1.7-0.8-3.4-1.9l-3.2-1.9-3.1 1.9c-1.7 1.1-3.3 1.9-3.5 1.9-0.4 0-0.8-0.4-0.8-0.9 0-0.2 0.3-1.9 0.8-3.8 0.4-1.8 0.7-3.4 0.7-3.4-0.3-0.2-5.4-4.7-5.5-4.9-0.2-0.4-0.1-0.6 0.1-1 0.3-0.3 0.6-0.3 4-0.6z"/>
			<path id="Layer" class="s2" d="m12.3 22.7v-5.8-5.7h3.6 3.5v0.6 0.7h-2.8-2.8v1.8 1.8h2.4 2.5v0.7 0.7h-2.5-2.4v1.9 2h2.9 2.9v0.6 0.7h-3.7z"/>
			<path id="Layer" class="s2" d="m23.8 17.1c-1.1-3.2-2-5.7-2-5.8 0-0.1 0.3-0.1 0.8-0.1 0.6 0 0.8 0 0.8 0.2 0.1 0.2 0.8 2.2 1.6 4.5 0.8 2.3 1.5 4.3 1.6 4.4 0 0 0.8-1.9 1.6-4.3 0.8-2.3 1.5-4.4 1.6-4.6 0.1-0.2 0.3-0.2 1-0.2 0.5 0 0.8 0 0.7 0.2 0 0.1-0.9 2.3-1.8 4.9-1 2.6-1.9 5.1-2.1 5.6l-0.3 0.8h-0.7-0.7z"/>
			<path id="Layer" class="s2" d="m34.6 22.7v-5.8-5.7h0.7 0.8v5.7 5.8h-0.8z"/>
			<path id="Layer" class="s2" d="m40.3 17c0-3.1 0-5.7 0.1-5.7 0-0.1 1.7-0.1 3.6-0.1l3.5 0.1v0.6l0.1 0.6h-2.9-2.8v1.8 1.8h2.5 2.5l-0.1 0.7v0.6h-2.5l-2.4 0.1v1.9 2h2.8 2.9v0.6 0.7h-3.7-3.6z"/>
			<path id="Layer" class="s2" d="m52.7 22.2c-0.2-0.9-2.6-10.9-2.6-11 0 0 0.3 0 0.7 0l0.8 0.1 0.9 3.9c0.5 2.2 0.9 4.2 1 4.5 0.1 0.5 0.2 0.2 1.4-3.9l1.2-4.5 0.7-0.1h0.7l0.2 0.9c1 4.1 2.3 8.2 2.3 7.8 0.1-0.2 0.5-2.2 1-4.5l0.9-4.1 0.8-0.1c0.4 0 0.8 0 0.8 0 0 0.1-2.5 10.2-2.7 11-0.1 0.5-0.1 0.5-0.8 0.5h-0.7l-1.2-4.4c-0.7-2.5-1.3-4.4-1.3-4.3-0.1 0.1-0.7 2.1-1.4 4.4l-1.2 4.3h-0.7c-0.6 0-0.7 0-0.8-0.5z"/>
			<path id="Layer" class="s2" d="m66.5 17c0-3.1 0.1-5.7 0.1-5.7 0.1-0.1 1.7-0.1 3.6-0.1l3.5 0.1 0.1 0.6v0.6h-2.8-2.9v1.8 1.8h2.5 2.5v0.7l-0.1 0.6h-2.4l-2.5 0.1v1.9 2h2.9 2.8v0.6 0.7h-3.6-3.7z"/>
			<path id="Layer" class="s2" d="m107.1 22.7v-5.8-5.7h0.7 0.7l1.7 2.6c0.9 1.4 2.2 3.3 2.8 4.3 0.6 0.9 1.2 1.7 1.2 1.7 0.1 0 0.2-1.9 0.2-4.3v-4.3h0.7 0.7v5.7 5.8h-0.8-0.7l-2.8-4.2c-1.5-2.4-2.8-4.3-2.9-4.3 0-0.1-0.1 1.8-0.1 4.2v4.3h-0.7z"/>
			<path id="Layer" fill-rule="evenodd" class="s2" d="m77.2 11.2h1.5c2.8 0 4.3 0.4 5.3 1.5 1.1 1.2 1.4 2.2 1.3 4.7 0 1.5-0.1 1.8-0.4 2.6-0.3 0.4-0.8 1.1-1.2 1.4-1 1-1.7 1.2-4.3 1.3h-2.2zm6.2 3.2c-0.4-0.8-1-1.3-1.9-1.6-0.3-0.2-1.1-0.2-1.7-0.2h-1.2v8.8h1.2c2 0 2.9-0.5 3.6-1.8 0.4-0.8 0.4-1 0.4-2.6 0-1.6 0-1.8-0.4-2.6z"/>
			<path id="Layer" fill-rule="evenodd" class="s2" d="m101.8 12.3c2 1.9 2.1 7.3 0.1 9.2-0.8 0.9-1.7 1.3-3.1 1.3-1.9 0-3.3-0.9-4.1-2.6-0.4-0.9-0.4-1-0.4-3.3 0-2.2 0-2.3 0.4-3.1q1-2.2 3.1-2.6c1.5-0.3 3.1 0.2 4 1.1zm-0.1 2.8c-0.2-1-0.9-1.9-1.6-2.3-0.9-0.6-2.2-0.4-3.1 0.2-0.3 0.2-0.6 0.8-0.9 1.2-0.3 0.8-0.3 1-0.3 2.7 0 1.7 0 2 0.3 2.7 1.1 2.5 4.1 2.6 5.2 0.2 0.4-0.7 0.4-1 0.5-2.3 0-0.9 0-1.9-0.1-2.4z"/>
			<path id="Layer" fill-rule="evenodd" class="s2" d="m0.9 11.2h1.8c3.4 0 4.6 0.3 5.4 1.5 0.4 0.5 0.5 0.7 0.5 1.7 0.1 1.3-0.2 2-0.9 2.6-0.3 0.2-0.6 0.4-0.8 0.6l-0.3 0.2 1.3 2.4c0.7 1.3 1.3 2.4 1.3 2.4 0 0.1-0.3 0.1-0.8 0.1h-0.8l-1.3-2.3-1.2-2.4-1.3 0.1h-1.3l-0.1 2.3v2.3h-1.5zm5.1 5.3c1.6-0.9 1.6-2.9 0-3.7-0.5-0.2-0.9-0.3-2.1-0.3-1 0-1.4 0.1-1.5 0.2 0 0.1 0 1.1 0 2.2l0.1 1.9h1.5c1.2 0 1.7-0.1 2-0.3z"/>
			<path id="Layer" class="s2" d="m143.5 55.2c0.1-1.7 1.2-3 3-3.6 0.9-0.3 3-0.2 3.9 0.2q2.1 1 2.1 3.4c0 0.9-0.1 1.3-0.5 2.1-0.6 1.3-1.3 2.2-3.8 4.9l-2.1 2.3h3.5l3.6 0.1v0.7 0.8h-4.8l-4.7 0.1v-0.7c0-0.7 0-0.7 2.5-3.6 1.4-1.5 2.9-3.1 3.2-3.5 1.5-1.9 1.7-3.5 0.5-4.8-1.5-1.5-4.2-0.5-4.6 1.7l-0.1 0.7-0.9-0.1h-0.9z"/>
			<path id="Layer" class="s2" d="m258.1 57.6c-1.8-2-0.7-5 2.2-6 1-0.3 3.4-0.2 4.3 0.2 1.5 0.7 2.4 1.9 2.6 3.3l0.1 0.7h-0.9c-0.9 0-1 0-1-0.3 0-0.4-0.5-1.4-1-1.8-0.5-0.5-1.4-0.7-2.5-0.6-1.7 0.1-2.6 0.8-2.7 2.1 0 1.3 0.7 1.9 3.4 2.8 2.1 0.6 2.8 1 3.6 1.7 0.8 0.7 1.1 1.5 1.1 2.7q0 2-1.5 3c-2.4 1.5-6.4 1.1-8.1-0.9-0.5-0.6-0.9-1.6-0.9-2.2 0-0.4 0-0.4 0.9-0.4 1 0 1 0 1.2 0.9 0.1 0.6 1 1.4 1.8 1.7 0.8 0.2 2.2 0.3 3 0 1.3-0.3 2-1.6 1.5-2.8-0.2-0.8-1.1-1.4-3-2-2.1-0.6-3.4-1.3-4.1-2.1z"/>
			<path id="Layer" class="s2" d="m190.6 66c-0.1-0.4-0.1-14.2 0-14.3 0-0.1 2.1-0.1 4.5-0.1h4.5v0.8 0.8h-3.5-3.6v2.3 2.3h3.1 3.2v0.8 0.8h-3.2-3.1v2.6 2.5h3.6 3.7v0.8 0.9h-4.6c-3 0-4.6-0.1-4.6-0.2z"/>
			<path id="Layer" class="s2" d="m204.9 59c-1.4-4-2.6-7.3-2.6-7.3 0-0.1 0.4-0.1 1-0.1h1l0.8 2.2c0.4 1.2 1.3 3.8 2 5.8 0.6 2 1.2 3.6 1.3 3.7 0 0 1-2.6 2.1-5.8l2-5.9h1.1c1 0 1.1 0 1 0.2 0 0.2-1.3 3.4-2.7 7.3l-2.6 7h-0.8l-0.9 0.1z"/>
			<path id="Layer" class="s2" d="m218.2 66.2v-7.3-7.3h0.9 1v7.3 7.3h-1z"/>
			<path id="Layer" class="s2" d="m225 66.2v-7.3-7.3h4.6 4.6v0.8 0.8h-3.6-3.6v2.3 2.3h3.2 3.1v0.8 0.8h-3.2-3.2l0.1 2.6v2.5h3.7l3.6 0.1v0.8 0.8h-4.6z"/>
			<path id="Layer" class="s2" d="m238.8 59c-0.9-3.9-1.7-7.1-1.7-7.2 0-0.2 0.3-0.2 0.9-0.2h1l0.1 0.6c0.4 1.5 2.2 9.6 2.3 10.2l0.2 0.7 0.8-3c0.5-1.7 1.2-4.3 1.6-5.8l0.8-2.7h0.8 0.9l1.4 5.2c0.8 2.9 1.5 5.4 1.5 5.8 0.1 0.3 0.2 0.5 0.2 0.4 0 0 0.2-0.9 0.5-2 0.2-1 0.8-3.6 1.2-5.7l0.9-3.7h1c0.7 0 1 0 0.9 0.2 0 0.1-0.8 3.3-1.8 7.2l-1.7 7.2h-0.9-0.9l-1.6-5.8-1.6-5.7-0.2 0.8c-0.1 0.3-0.8 2.9-1.6 5.6-0.8 2.7-1.4 5-1.4 5 0 0-0.4 0-0.9 0h-1z"/>
			<path id="Layer" fill-rule="evenodd" class="s2" d="m176.5 51.5l3.2 0.1c3.7 0.1 4.3 0.2 5.4 1.1 1 0.8 1.2 1.5 1.2 3.2 0 1.4 0 1.5-0.4 2.2-0.4 0.6-1.5 1.5-2 1.7-0.1 0 0.4 1.1 1.5 3.1 0.9 1.7 1.7 3.1 1.7 3.2 0 0-0.5 0.1-1.1 0.1l-1-0.1-1.4-2.6c-0.8-1.5-1.5-2.8-1.7-3-0.1-0.2-0.3-0.3-1.8-0.3h-1.6v6h-2zm8 4.3c0-1.3-0.8-2.2-2-2.6-0.3 0-1.3-0.1-2.3-0.1h-1.7v5.6l1.9-0.1c1.6-0.1 2.1-0.1 2.5-0.4 1.1-0.5 1.6-1.3 1.6-2.4z"/>
			<path id="Layer" class="s2" d="m157.7 66l5.3-12.9h-7v-1.6h8.9v1.6l-5.2 12.9z"/>
		</g>
	</g>
</svg>